<svg id="Capa_1" enable-background="new 0 0 512 512" height="512" viewBox="0 0 512 512" width="512" xmlns="http://www.w3.org/2000/svg"><g><g><g><ellipse cx="256" cy="86.514" fill="#df646e" rx="51.627" ry="86.514"/><path d="m256 0c8.871 16.61 14.899 49.121 14.899 86.514s-6.028 69.904-14.899 86.514c30.74-16.61 51.627-49.121 51.627-86.514s-20.887-69.904-51.627-86.514z" fill="#d82f3c"/></g><g><ellipse cx="109.221" cy="171.257" fill="#df646e" rx="51.627" ry="86.514" transform="matrix(.5 -.866 .866 .5 -93.703 180.216)"/><path d="m34.297 128c18.821.622 49.99 11.657 82.373 30.354s57.525 40.172 67.474 56.16c.985-34.927-16.727-69.271-49.11-87.967s-70.982-16.864-100.737 1.453z" fill="#d82f3c"/></g><g><ellipse cx="109.221" cy="340.743" fill="#df646e" rx="86.514" ry="51.627" transform="matrix(.866 -.5 .5 .866 -155.739 100.261)"/><path d="m34.297 384c9.949-15.988 35.09-37.464 67.474-56.16 32.383-18.696 63.552-29.732 82.373-30.354-29.755-18.317-68.353-20.15-100.737-1.453-32.383 18.696-50.095 53.04-49.11 87.967z" fill="#d82f3c"/></g><g><ellipse cx="256" cy="425.486" fill="#df646e" rx="51.627" ry="86.514"/><path d="m256 512c-8.871-16.61-14.899-49.121-14.899-86.514s6.028-69.904 14.899-86.514c-30.74 16.61-51.627 49.121-51.627 86.514s20.887 69.904 51.627 86.514z" fill="#d82f3c"/></g><g><ellipse cx="402.779" cy="340.743" fill="#df646e" rx="51.627" ry="86.514" transform="matrix(.5 -.866 .866 .5 -93.703 519.189)"/><path d="m477.703 384c-18.821-.622-49.99-11.657-82.373-30.354-32.383-18.696-57.525-40.172-67.474-56.16-.985 34.927 16.727 69.271 49.11 87.967s70.982 16.864 100.737-1.453z" fill="#d82f3c"/></g><g><ellipse cx="402.779" cy="171.257" fill="#df646e" rx="86.514" ry="51.627" transform="matrix(.866 -.5 .5 .866 -31.666 224.334)"/><path d="m477.703 128c-9.949 15.988-35.09 37.464-67.474 56.16s-63.552 29.732-82.373 30.354c29.755 18.317 68.353 20.15 100.737 1.453s50.095-53.04 49.11-87.967z" fill="#d82f3c"/></g><g fill="#77d1b3"><path d="m133.174 43.258c8.03 48.442-64.515 44.689-10.967 137.435l135.474-78.216c-53.549-92.746-86.571-28.043-124.507-59.219z"/><path d="m10.347 256c45.967 17.266 6.444 78.216 113.539 78.216v-156.432c-107.095 0-67.572 60.95-113.539 78.216z"/><path d="m133.174 468.742c37.937-31.175 70.959 33.527 124.506-59.22l-135.474-78.216c-53.547 92.747 18.998 88.994 10.968 137.436z"/><path d="m378.826 468.742c-8.03-48.442 64.515-44.689 10.967-137.435l-135.473 78.215c53.548 92.747 86.57 28.044 124.506 59.22z"/><path d="m501.653 256c-45.967-17.266-6.444-78.216-113.539-78.216v156.431c107.095.001 67.572-60.949 113.539-78.215z"/><path d="m378.826 43.258c-37.937 31.175-70.959-33.527-124.506 59.22l135.474 78.216c53.547-92.747-18.998-88.994-10.968-137.436z"/></g></g><path d="m253.278 68.753-158.078 91.267c-1.684.972-2.722 2.769-2.722 4.714v182.533c0 1.945 1.037 3.742 2.722 4.714l158.078 91.266c1.684.972 3.759.972 5.443 0l158.079-91.267c1.684-.972 2.722-2.769 2.722-4.714v-182.532c0-1.945-1.037-3.742-2.722-4.714l-158.078-91.267c-1.685-.972-3.759-.972-5.444 0z" fill="#e9a761"/><path d="m162.024 100.278c-2.009 31.71-37.518 97.259 38.729 123.906l55.316-31.937c15.047-79.355-59.475-81.378-87.941-95.493-2.721-1.35-5.912.492-6.104 3.524z" fill="#717ed4"/><path d="m168.129 96.754c-2.722-1.35-5.912.492-6.105 3.524-.202 3.182-.744 6.709-1.473 10.498 26.386 14.969 72.344 31.274 72.016 95.04l23.503-13.569c15.047-79.355-59.475-81.378-87.941-95.493z" fill="#5766cc"/><path d="m223.591 207.58c-2.67 0-5.267-1.386-6.698-3.865l-30.191-52.292c-2.134-3.696-.867-8.421 2.828-10.554 3.694-2.134 8.42-.868 10.554 2.828l30.191 52.292c2.134 3.696.867 8.421-2.828 10.554-1.217.703-2.546 1.037-3.856 1.037z" fill="#5766cc"/><path d="m74.153 259.524c26.457 17.594 65.47 81.121 126.67 28.413v-63.874c-61.2-52.709-100.213 10.818-126.67 28.413-2.53 1.682-2.53 5.366 0 7.048z" fill="#717ed4"/><path d="m74.153 252.476c-2.53 1.682-2.53 5.366 0 7.049 2.655 1.765 5.438 3.999 8.355 6.525 26.157-15.367 63.256-47.015 118.315-14.847v-27.139c-61.2-52.71-100.213 10.817-126.67 28.412z" fill="#5766cc"/><path d="m191.166 263.726h-60.381c-4.268 0-7.726-3.459-7.726-7.726s3.459-7.726 7.726-7.726h60.381c4.268 0 7.726 3.459 7.726 7.726s-3.458 7.726-7.726 7.726z" fill="#5766cc"/><path d="m168.129 415.246c28.466-14.116 102.988-16.138 87.941-95.493l-55.316-31.937c-76.247 26.646-40.738 92.196-38.729 123.906.191 3.032 3.382 4.874 6.104 3.524z" fill="#717ed4"/><path d="m162.024 411.722c.192 3.032 3.382 4.874 6.105 3.524 2.856-1.416 6.182-2.71 9.828-3.973-.23-30.336-9.088-78.288 46.299-109.887l-23.503-13.569c-76.247 26.645-40.737 92.195-38.729 123.905z" fill="#5766cc"/><path d="m193.385 372.168c-1.311 0-2.639-.334-3.856-1.037-3.695-2.133-4.962-6.859-2.828-10.554l30.191-52.292c2.133-3.695 6.857-4.963 10.554-2.828 3.695 2.133 4.962 6.859 2.828 10.554l-30.191 52.292c-1.43 2.479-4.028 3.865-6.698 3.865z" fill="#5766cc"/><path d="m349.976 411.722c2.009-31.71 37.518-97.259-38.729-123.906l-55.316 31.937c-15.047 79.355 59.475 81.378 87.941 95.493 2.721 1.35 5.912-.492 6.104-3.524z" fill="#717ed4"/><path d="m343.871 415.246c2.722 1.35 5.912-.492 6.104-3.524.202-3.182.744-6.709 1.473-10.498-26.386-14.969-72.344-31.274-72.016-95.04l-23.503 13.569c-15.046 79.355 59.476 81.378 87.942 95.493z" fill="#5766cc"/><path d="m318.615 372.168c-2.67 0-5.267-1.386-6.698-3.865l-30.191-52.292c-2.134-3.696-.867-8.421 2.828-10.554 3.693-2.134 8.42-.868 10.554 2.828l30.191 52.292c2.134 3.696.867 8.421-2.828 10.554-1.216.702-2.545 1.037-3.856 1.037z" fill="#5766cc"/><path d="m437.847 252.476c-26.457-17.594-65.47-81.121-126.67-28.413v63.874c61.2 52.709 100.213-10.818 126.67-28.413 2.53-1.682 2.53-5.366 0-7.048z" fill="#717ed4"/><path d="m437.847 259.524c2.53-1.682 2.53-5.366 0-7.049-2.655-1.765-5.438-3.999-8.355-6.525-26.157 15.367-63.256 47.015-118.315 14.847v27.139c61.2 52.71 100.213-10.817 126.67-28.412z" fill="#5766cc"/><path d="m381.215 263.726h-60.381c-4.268 0-7.726-3.459-7.726-7.726s3.459-7.726 7.726-7.726h60.381c4.268 0 7.726 3.459 7.726 7.726.001 4.267-3.458 7.726-7.726 7.726z" fill="#5766cc"/><path d="m343.871 96.754c-28.466 14.116-102.988 16.138-87.941 95.493l55.316 31.937c76.247-26.646 40.738-92.196 38.729-123.906-.191-3.032-3.382-4.874-6.104-3.524z" fill="#717ed4"/><path d="m349.976 100.278c-.192-3.032-3.382-4.874-6.104-3.524-2.856 1.416-6.182 2.71-9.828 3.973.23 30.336 9.088 78.288-46.299 109.887l23.503 13.569c76.246-26.645 40.736-92.195 38.728-123.905z" fill="#5766cc"/><path d="m288.409 207.58c-1.311 0-2.639-.334-3.856-1.037-3.695-2.133-4.962-6.859-2.828-10.554l30.191-52.292c2.132-3.697 6.857-4.962 10.554-2.828 3.695 2.133 4.962 6.859 2.828 10.554l-30.191 52.292c-1.43 2.479-4.028 3.865-6.698 3.865z" fill="#5766cc"/><g><circle cx="256" cy="256" fill="#eec06b" r="82.899"/><g fill="#df646e"><path d="m327.58 214.174-71.58 41.313v-82.387c30.537.001 57.2 16.505 71.58 41.074z"/><path d="m328.017 297.073c-14.259 24.99-41.178 41.826-72.017 41.826v-83.397z"/><path d="m256 255.487v.015l-72.017 41.57c-6.933-12.103-10.882-26.121-10.882-41.073 0-15.253 4.13-29.557 11.32-41.826z"/></g><circle cx="256" cy="256" fill="#77d1b3" r="46.129"/></g><g fill="#d82f3c"><path d="m256 108.144c-4.268 0-7.726-3.459-7.726-7.726v-1.141c0-4.267 3.459-7.726 7.726-7.726s7.726 3.459 7.726 7.726v1.141c0 4.267-3.458 7.726-7.726 7.726z"/><path d="m121.698 185.681c-1.312 0-2.642-.335-3.859-1.038l-.988-.571c-3.694-2.135-4.959-6.861-2.823-10.555 2.134-3.695 6.861-4.96 10.555-2.824l.988.571c3.694 2.135 4.959 6.861 2.823 10.556-1.43 2.476-4.027 3.861-6.696 3.861z"/><path d="m120.724 341.321c-2.67 0-5.267-1.386-6.698-3.865-2.134-3.695-.867-8.421 2.828-10.554l.988-.57c3.693-2.132 8.42-.868 10.554 2.828 2.134 3.695.867 8.421-2.828 10.554l-.988.57c-1.216.702-2.545 1.037-3.856 1.037z"/><path d="m256 419.425c-4.268 0-7.726-3.459-7.726-7.726v-1.141c0-4.267 3.459-7.726 7.726-7.726s7.726 3.459 7.726 7.726v1.141c0 4.267-3.458 7.726-7.726 7.726z"/><path d="m391.276 341.321c-1.311 0-2.64-.334-3.856-1.037l-.988-.57c-3.695-2.134-4.962-6.859-2.828-10.554 2.134-3.696 6.859-4.962 10.554-2.828l.988.57c3.695 2.134 4.962 6.859 2.828 10.554-1.432 2.479-4.028 3.865-6.698 3.865z"/><path d="m390.302 185.681c-2.669 0-5.265-1.385-6.696-3.862-2.136-3.695-.871-8.421 2.823-10.556l.988-.571c3.693-2.134 8.42-.871 10.555 2.824 2.136 3.694.871 8.42-2.823 10.555l-.988.571c-1.217.704-2.547 1.039-3.859 1.039z"/></g></g></svg>